<svg width="512" height="512" xmlns="http://www.w3.org/2000/svg">
  <g>
    <path stroke="null" d="M386.877 207.108zM255.5 33.797L143.035 228.593c30.576-13.712 69.68-21.617 112.465-21.617 42.787 0 81.891 7.905 112.466 21.617L255.5 33.797zm0 200.296c-22.2 0-39.905 17.7-39.905 39.903 0 12.86 5.947 24.201 15.26 31.477a42.316 42.316 0 01-2.085-12.96 42.316 42.316 0 0142.316-42.316 42.316 42.316 0 0119.614 4.855c-6.697-12.526-19.876-20.96-35.2-20.96v.001zm-57.516 5.628c-19.065 3.869-36.05 9.533-49.836 16.427-26.559 13.279-39.484 29.764-39.484 44.581 0 14.82 12.925 31.3 39.484 44.58 26.559 13.279 64.893 22.058 107.353 22.058 42.459 0 80.793-8.78 107.352-22.059 26.559-13.279 39.484-29.76 39.484-44.579 0-14.817-12.925-31.304-39.484-44.581-13.788-6.894-30.77-12.558-49.836-16.427 6.026 10.048 9.505 21.773 9.505 34.275 0 36.855-30.166 67.022-67.021 67.022-36.856 0-67.022-30.167-67.022-67.022 0-12.504 3.48-24.228 9.505-34.275zM87.214 325.28L1.176 474.297h508.644l-86.033-149.018c-8.682 18.195-26.63 33.194-48.81 44.286-31.495 15.746-73.356 24.917-119.479 24.917-46.123 0-87.984-9.171-119.477-24.917-22.182-11.092-40.131-26.091-48.809-44.29v.004z"/>
  </g>
</svg>
